<svg id="visual" viewBox="0 0 9600 5400" width="9600" height="5400" xmlns="http://www.w3.org/2000/svg" xmlns:xlink="http://www.w3.org/1999/xlink" version="1.1"><rect x="0" y="0" width="9600" height="5400" fill="#f6b418"></rect><g transform="translate(4195.665993531909 2345.220042416559)"><path d="M4013.6 -5861.6C5102.2 -6323.2 5816.9 -5047.1 6071 -3780.6C6325 -2514 6118.5 -1257 5029.9 -628.5C3941.3 0 1970.7 0 1183.5 343.2C396.3 686.5 792.7 1372.9 792.7 2583.6C792.7 3794.3 396.3 5529.1 -415.2 6248.2C-1226.7 6967.3 -2453.3 6670.6 -3464.7 6043.9C-4476.1 5417.1 -5272.2 4460.3 -4839.3 3398C-4406.5 2335.7 -2744.7 1167.8 -2804.5 -34.5C-2864.3 -1236.8 -4645.5 -2473.7 -4772.2 -3005.7C-4898.8 -3537.7 -3370.9 -3364.9 -2299.8 -2913.4C-1228.7 -2461.8 -614.3 -1731.4 424.1 -2465.9C1462.5 -3200.5 2925 -5399.9 4013.6 -5861.6" fill="#1c9dcc"></path></g></svg>